<svg xmlns="http://www.w3.org/2000/svg" width="167.3205mm" height="141.2437mm" viewBox="0 0 474.2942 400.376">
  <title>plate</title>
  <path d="M518.6,379.2l-77.2,76s-3.4,3.9-7.7.9c-16.9-12.1-64.4-75.8-161.6-62.7-3.1.4-9-.9-9.6-7.1V320.7c-.3-4.5-5.6-5.3-5.6-5.3H213.2c-3.4,0-4.5-4.2-4.5-4.2v-9.7a3.8833,3.8833,0,0,0-3.7-4.7H170.6c-3.9,0-3.4,4.5-3.4,4.5v22.8s-.3,3-4.8,4.5H108.2s-5.3.2-6.1-5.1V302s.2-5.6-5.4-5.6H50.6s-5.1-.3-5.1-5.3V93.4s0-5.3,6-5.4H151.8s3.9-1.1,3.8-3.9V72.5a6.116,6.116,0,0,1,5.2-4.9H217c3.9.6,4,3.8,4,3.8V82.5s.2,3.9,3.9,3.8h35.7s3.7-1.3,3.4-3.8V75.6a5.7266,5.7266,0,0,1,4.2-4.6h46.2s3.4-1,3.6-4.1c.1-1.1,0-5.5,0-5.5s-.2-4.4,3.7-4.4h58.4a3.725,3.725,0,0,1,3.6,3.9V78.2a5.5925,5.5925,0,0,0,5.1,4.8h54.8s4.7,1.6,5.2,5.5V298s.3,6.2,3.8,9.5l66.1,65.9C518.9,373.4,520.8,377.2,518.6,379.2Zm-102.4,6.2,2,2-1.6,1.6,5.9,5.9,1.6-1.6,12,11.9-1.6,1.6,5.9,5.9,1.6-1.6,2,2,27.7-27.7-2-2,1.6-1.6-5.9-6-1.6,1.6-11.9-11.9,1.6-1.6-5.9-5.9-1.6,1.6-2-2Zm-48-58.9-2.5-1.3-17.8,35,2.5,1.3-1,2,7.4,3.8,1.1-2,15,7.6-1,2.1,7.4,3.8,1-2.1,2.6,1.3,17.8-35-2.5-1.2,1-2.1-7.5-3.8-1,2.1-15-7.7,1-2-7.4-3.8Zm-88.5-1.9v2.3h-2.8v39.2h2.8v2.3h8.4v-2.3H305v2.3h8.3v-2.3h2.9V326.9h-2.9v-2.3H305v2.3H288.1v-2.3ZM114.9,275.8v2.9h-2.3V287h2.3v16.9h-2.3v8.3h2.3v2.9h39.3v-2.9h2.2v-8.3h-2.2V287h2.2v-8.3h-2.2v-2.9Zm270-9.7v2.8h-2.3v8.4h2.3v16.9h-2.3v8.3h2.3v2.9h39.3v-2.9h2.2v-8.3h-2.2V277.3h2.2v-8.4h-2.2v-2.8Zm-162-4.3v2.8h-2.3V273h2.3v16.8h-2.3v8.4h2.3V301h39.3v-2.8h2.2v-8.4h-2.2V273h2.2v-8.4h-2.2v-2.8Zm54-15.1v2.8h-2.3v8.4h2.3v16.8h-2.3v8.4h2.3v2.8h39.3v-2.8h2.2v-8.4h-2.2V257.9h2.2v-8.4h-2.2v-2.8Zm-108-3.8v2.8h-2.3v8.4h2.3v16.8h-2.3v8.4h2.3v2.8h39.3v-2.8h2.2v-8.4h-2.2V254.1h2.2v-8.4h-2.2v-2.8Zm162-10.3v2.9h-2.3v8.3h2.3v16.9h-2.3V269h2.3v2.9h39.3V269h2.2v-8.3h-2.2V243.8h2.2v-8.3h-2.2v-2.9Zm-270-3.8v2.9H58.6V240h2.3v16.9H58.6v8.4h2.3v2.8h39.3v-2.8h2.2v-8.4h-2.2V240h2.2v-8.3h-2.2v-2.9Zm324-16.7v2.8h-2.3v8.4h2.3v16.9h-2.3v8.3h2.3v2.9h39.3v-2.9h2.2v-8.3h-2.2V223.3h2.2v-8.4h-2.2v-2.8Zm-162-4.3v2.8h-2.3V219h2.3v16.8h-2.3v8.4h2.3V247h39.3v-2.8h2.2v-8.4h-2.2V219h2.2v-8.4h-2.2v-2.8ZM117.7,195.3v2.2h-2.8v39.3h2.8V239h8.4v-2.2H143V239h8.3v-2.2h2.9V197.5h-2.9v-2.2H143v2.2H126.1v-2.2Zm159.2-2.6v2.8h-2.3v8.4h2.3v16.8h-2.3v8.4h2.3v2.8h39.3v-2.8h2.2v-8.4h-2.2V203.9h2.2v-8.4h-2.2v-2.8Zm-108-3.8v2.8h-2.3v8.4h2.3v16.8h-2.3v8.4h2.3v2.8h39.3v-2.8h2.2v-8.4h-2.2V200.1h2.2v-8.4h-2.2v-2.8Zm162-10.3v2.9h-2.3v8.3h2.3v16.9h-2.3V215h2.3v2.9h39.3V215h2.2v-8.3h-2.2V189.8h2.2v-8.3h-2.2v-2.9Zm54-20.5v2.8h-2.3v8.4h2.3v16.9h-2.3v8.3h2.3v2.9h39.3v-2.9h2.2v-8.3h-2.2V169.3h2.2v-8.4h-2.2v-2.8Zm-162-4.3v2.8h-2.3V165h2.3v16.8h-2.3v8.4h2.3V193h39.3v-2.8h2.2v-8.4h-2.2V165h2.2v-8.4h-2.2v-2.8Zm54-15.1v2.8h-2.3v8.4h2.3v16.8h-2.3v8.4h2.3v2.8h39.3v-2.8h2.2v-8.4h-2.2V149.9h2.2v-8.4h-2.2v-2.8Zm-108-3.8v2.8h-2.3v8.4h2.3v16.8h-2.3v8.4h2.3v2.8h39.3v-2.8h2.2v-8.4h-2.2V146.1h2.2v-8.4h-2.2v-2.8Zm162-10.3v2.9h-2.3v8.3h2.3v16.9h-2.3V161h2.3v2.9h39.3V161h2.2v-8.3h-2.2V135.8h2.2v-8.3h-2.2v-2.9Zm54-20.5v2.8h-2.3v8.4h2.3v16.9h-2.3v8.3h2.3v2.9h39.3v-2.9h2.2v-8.3h-2.2V115.3h2.2v-8.4h-2.2v-2.8Zm-270-2.2v2.9h-2.3v8.3h2.3V130h-2.3v8.4h2.3v2.8h39.3v-2.8h2.2V130h-2.2V113.1h2.2v-8.3h-2.2v-2.9Zm108-2.1v2.8h-2.3V111h2.3v16.8h-2.3v8.4h2.3V139h39.3v-2.8h2.2v-8.4h-2.2V111h2.2v-8.4h-2.2V99.8Zm54-15.1v2.8h-2.3v8.4h2.3v16.8h-2.3v8.4h2.3v2.8h39.3v-2.8h2.2v-8.4h-2.2V95.9h2.2V87.5h-2.2V84.7Zm-108-3.8v2.8h-2.3v8.4h2.3v16.8h-2.3v8.4h2.3v2.8h39.3v-2.8h2.2v-8.4h-2.2V92.1h2.2V83.7h-2.2V80.9Zm162-10.3v2.9h-2.3v8.3h2.3V98.7h-2.3V107h2.3v2.9h39.3V107h2.2V98.7h-2.2V81.8h2.2V73.5h-2.2V70.6ZM436.2377,243.5081l-1.1548.63-.9449.9448-.63,1.1549-.21,1.3648.21,1.26.63,1.1548.9449.9449,1.1548.63,1.3649.21,1.26-.21,1.1549-.63.9448-.9449.63-1.1548.21-1.26-.21-1.3648-.63-1.1549-.9448-.9448-1.1549-.63-1.26-.21Zm-377,35.5-1.1549.63-.9449.9449-.63,1.1548-.21,1.26.21,1.3648.63,1.1549.9449.9449,1.1549.63,1.3648.21,1.26-.21,1.1549-.63.9449-.9449.63-1.1549.21-1.3648-.21-1.26-.63-1.1548-.9449-.9449-1.1549-.63-1.26-.21Zm405.1,124-1.1549.63-.9449.9449-.63,1.1548-.21,1.26.21,1.3648.63,1.1549.9449.9449,1.1549.63,1.3648.21,1.26-.21,1.1549-.63.9449-.9449.63-1.1549.21-1.3648-.21-1.26-.63-1.1548-.9449-.9449-1.1549-.63-1.26-.21Zm-28.1-314.5-1.1548.63-.9449.9449-.63,1.1549-.21,1.3648.21,1.26.63,1.1549.9449.9449,1.1548.63,1.3649.21,1.26-.21,1.1548-.63.9449-.9449.63-1.1549.21-1.26-.21-1.3648-.63-1.1549-.9449-.9449-1.1548-.63-1.26-.21Zm-359,115-1.1549.63-.9449.9449-.63,1.1548-.21,1.3649.21,1.26.63,1.1549.9449.9448,1.1549.63,1.3648.21,1.26-.21,1.1549-.63.9449-.9448.63-1.1549.21-1.26-.21-1.3649-.63-1.1548-.9449-.9449-1.1549-.63-1.26-.21Zm242.6153,31.45-1.1548.63-.9449.9449-.63,1.1549-.21,1.3648.21,1.26.63,1.1549.9449.9449,1.1548.63,1.3648.21,1.26-.21,1.1548-.63.9449-.9449.63-1.1549.21-1.26-.21-1.3648-.63-1.1549-.9449-.9449-1.1548-.63-1.26-.21Zm17.3846,89.55-1.1548.63-.9449.9448-.63,1.1549-.21,1.3648.21,1.26.63,1.1548.9449.9449,1.1548.63,1.3648.21,1.26-.21,1.1548-.63.9449-.9449.63-1.1548.21-1.26-.21-1.3648-.63-1.1549-.9449-.9448-1.1548-.63-1.26-.21Zm-17.3846-196.9-1.1548.63-.9449.9449-.63,1.1549-.21,1.3648.21,1.26.63,1.1549.9449.9449,1.1548.63,1.3648.21,1.26-.21,1.1548-.63.9449-.9449.63-1.1549.21-1.26-.21-1.3648-.63-1.1549-.9449-.9449-1.1548-.63-1.26-.21Zm-101.5666,14.9-1.1549.63-.9448.9449-.63,1.1549-.21,1.3648.21,1.26.63,1.1549.9448.9449,1.1549.63,1.3648.21,1.26-.21,1.1548-.63.9449-.9449.63-1.1549.21-1.26-.21-1.3648-.63-1.1549-.9449-.9449-1.1548-.63-1.26-.21Zm-6.0487,89-1.1549.63-.9449.9449-.63,1.1548-.21,1.3648.21,1.26.63,1.1548.9449.9449,1.1549.63,1.3648.21,1.26-.21,1.1549-.63.9449-.9449.63-1.1548.21-1.26-.21-1.3648-.63-1.1548-.9449-.9449-1.1549-.63-1.26-.21Zm-80,21-1.1548.63-.9449.9449-.63,1.1549-.21,1.3648.21,1.26.63,1.1548.9449.9449,1.1548.63,1.3649.21,1.26-.21,1.1549-.63.9448-.9449.63-1.1548.21-1.26-.21-1.3648-.63-1.1549-.9448-.9449-1.1549-.63-1.26-.21Zm.95-86.9116-1.1549.63-.9449.9449-.63,1.1548-.21,1.3649.21,1.26.63,1.1549.9449.9449,1.1549.63,1.3648.21,1.26-.21,1.1549-.63.9449-.9449.63-1.1549.21-1.26-.21-1.3649-.63-1.1548-.9449-.9449-1.1549-.63-1.26-.21Zm291.05,176.9116-1.1549.63-.9449.9449-.63,1.1549-.21,1.3648.21,1.26.63,1.1549.9449.9449,1.1549.63,1.3648.21,1.26-.21,1.1549-.63.9449-.9449.63-1.1549.21-1.26-.21-1.3648-.63-1.1549-.9449-.9449-1.1549-.63-1.26-.21Z" transform="translate(-45.4292 -56.9292)" style="fill: none;stroke: #000;stroke-width: 0.141699999570847px"/>
</svg>
