M48
; DRILL file {KiCad (5.1.6-0-10_14)} date Sunday, August 23, 2020 at 12:26:21 AM
; FORMAT={-:-/ absolute / metric / decimal}
; #@! TF.CreationDate,2020-08-23T00:26:21+08:00
; #@! TF.GenerationSoftware,Kicad,Pcbnew,(5.1.6-0-10_14)
; #@! TF.FileFunction,Plated,1,2,PTH
FMAT,2
METRIC
T1C0.400
T2C0.700
T3C1.092
T4C1.470
T5C3.000
T6C8.000
%
G90
G05
T1
X131.381Y-137.35
X134.39Y-143.524
X137.617Y-123.914
X139.878Y-146.037
X141.643Y-144.018
X144.361Y-144.374
X145.169Y-156.875
X145.58Y-129.654
X171.386Y-140.056
X208.763Y-118.872
T2
X143.489Y-161.433
X143.489Y-169.233
X181.589Y-109.236
X181.589Y-117.036
X219.418Y-108.419
X219.418Y-116.219
X238.739Y-162.767
X238.739Y-170.567
X181.47Y-146.646
X181.47Y-154.446
X219.342Y-131.457
X219.342Y-139.257
X250.772Y-218.349
X256.288Y-223.865
X219.342Y-170.306
X219.342Y-178.106
X181.589Y-166.386
X181.589Y-174.186
X257.789Y-117.428
X257.789Y-125.228
X162.539Y-145.622
X162.539Y-153.422
X200.639Y-154.004
X200.639Y-161.804
X162.539Y-116.666
X162.539Y-124.466
X257.789Y-174.578
X257.789Y-182.378
X257.789Y-136.478
X257.789Y-144.278
X219.367Y-145.681
X219.367Y-153.481
X134.098Y-176.301
X141.898Y-176.301
X200.639Y-173.054
X200.639Y-180.854
X200.639Y-115.904
X200.639Y-123.704
X258.28Y-151.332
X258.28Y-159.132
X238.739Y-143.717
X238.739Y-151.517
X238.739Y-105.617
X238.739Y-113.417
X238.739Y-124.667
X238.739Y-132.467
X244.635Y-210.371
X248.176Y-203.421
X200.139Y-135.521
X200.139Y-143.321
X220.612Y-200.113
X220.612Y-207.913
X181.267Y-134.416
X181.267Y-142.216
T3
X125.997Y-112.585
X125.997Y-115.125
X125.997Y-117.665
X125.997Y-120.206
X125.997Y-122.745
X125.997Y-125.285
X125.997Y-127.825
X125.997Y-130.365
X125.997Y-132.905
X125.997Y-135.445
X125.997Y-137.986
X125.997Y-140.525
X141.237Y-112.585
X141.237Y-115.125
X141.237Y-117.665
X141.237Y-120.206
X141.237Y-122.745
X141.237Y-125.285
X141.237Y-127.825
X141.237Y-130.365
X141.237Y-132.905
X141.237Y-135.445
X141.237Y-137.986
X141.237Y-140.525
T4
X263.161Y-218.068
X263.543Y-218.507
X266.237Y-212.221
X266.343Y-214.179
X205.854Y-130.48
X207.164Y-129.02
X212.164Y-128.52
X212.204Y-127.94
X205.854Y-168.58
X207.164Y-167.12
X212.164Y-166.62
X212.204Y-166.04
X243.954Y-118.288
X245.264Y-116.828
X250.264Y-116.328
X250.304Y-115.748
X186.804Y-135.814
X188.114Y-134.354
X193.114Y-133.854
X193.154Y-133.274
X167.754Y-110.096
X169.064Y-108.636
X174.064Y-108.136
X174.104Y-107.556
X167.754Y-167.246
X169.064Y-165.786
X174.064Y-165.286
X174.104Y-164.706
X224.904Y-163.627
X226.214Y-162.167
X231.214Y-161.667
X231.254Y-161.087
X243.954Y-137.338
X245.264Y-135.878
X250.264Y-135.378
X250.304Y-134.798
X243.954Y-175.438
X245.264Y-173.978
X250.264Y-173.478
X250.304Y-172.898
X224.904Y-106.477
X226.214Y-105.017
X231.214Y-104.517
X231.254Y-103.937
X205.854Y-149.53
X207.164Y-148.07
X212.164Y-147.57
X212.204Y-146.99
X186.804Y-173.914
X188.114Y-172.454
X193.114Y-171.954
X193.154Y-171.374
X186.804Y-154.864
X188.114Y-153.404
X193.114Y-152.904
X193.154Y-152.324
X224.904Y-125.527
X226.214Y-124.067
X231.214Y-123.567
X231.254Y-122.987
X224.904Y-144.577
X226.214Y-143.117
X231.214Y-142.617
X231.254Y-142.037
X167.754Y-148.196
X169.064Y-146.736
X174.064Y-146.236
X174.104Y-145.656
X155.067Y-149.873
X156.527Y-151.183
X157.027Y-156.183
X157.607Y-156.223
X148.704Y-117.526
X150.014Y-116.066
X155.014Y-115.566
X155.054Y-114.986
X148.704Y-178.867
X150.014Y-177.407
X155.014Y-176.907
X155.054Y-176.327
X239.984Y-205.515
X240.482Y-205.814
X241.102Y-199.003
X241.808Y-200.833
X205.854Y-111.43
X207.164Y-109.97
X212.164Y-109.47
X212.204Y-108.89
X186.804Y-116.764
X188.114Y-115.304
X193.114Y-114.804
X193.154Y-114.224
X212.166Y-195.643
X213.626Y-196.953
X214.126Y-201.953
X214.706Y-201.993
X167.754Y-129.146
X169.064Y-127.686
X174.064Y-127.186
X174.104Y-126.606
X129.654Y-162.293
X130.964Y-160.833
X135.964Y-160.333
X136.004Y-159.753
X243.954Y-156.388
X245.264Y-154.928
X250.264Y-154.428
X250.304Y-153.848
T5
X269.545Y-220.701
X259.664Y-164.465
X132.639Y-150.343
X259.639Y-109.842
X126.289Y-176.975
T6
X218.313Y-161.646
X180.264Y-160.236
X152.019Y-167.665
X182.486Y-128.778
X218.389Y-123.609
X152.425Y-136.957
X224.676Y-193.04
X255.397Y-199.403
T0
M30
