G04 #@! TF.GenerationSoftware,KiCad,Pcbnew,(5.1.6-0-10_14)*
G04 #@! TF.CreationDate,2020-08-23T00:26:13+08:00*
G04 #@! TF.ProjectId,Geopad,47656f70-6164-42e6-9b69-6361645f7063,rev?*
G04 #@! TF.SameCoordinates,Original*
G04 #@! TF.FileFunction,Profile,NP*
%FSLAX46Y46*%
G04 Gerber Fmt 4.6, Leading zero omitted, Abs format (unit mm)*
G04 Created by KiCad (PCBNEW (5.1.6-0-10_14)) date 2020-08-23 00:26:13*
%MOMM*%
%LPD*%
G01*
G04 APERTURE LIST*
G04 #@! TA.AperFunction,Profile*
%ADD10C,0.200000*%
G04 #@! TD*
G04 APERTURE END LIST*
D10*
X224962458Y-217198433D02*
X226153427Y-217527785D01*
X210757296Y-215296741D02*
X212081935Y-215327058D01*
X200915002Y-215913757D02*
X201585418Y-215913757D01*
X198787656Y-215471752D02*
X199111495Y-215640906D01*
X178922029Y-187696703D02*
X179409683Y-188181428D01*
X179409683Y-188181428D02*
X180136426Y-188397091D01*
X178548926Y-186915700D02*
X178922029Y-187696703D01*
X164671736Y-181900674D02*
X165602084Y-181835562D01*
X177869036Y-182010573D02*
X178421802Y-182541806D01*
X163989780Y-182639647D02*
X164208371Y-182219345D01*
X178421802Y-182541806D02*
X178548926Y-183493686D01*
X165602084Y-181835562D02*
X168159723Y-181835562D01*
X168159723Y-181835562D02*
X177243579Y-181835562D01*
X209434723Y-215294329D02*
X210757296Y-215296741D01*
X205635472Y-215436956D02*
X207148903Y-215354274D01*
X163908992Y-183423062D02*
X163989780Y-182639647D01*
X217890021Y-215804892D02*
X219507838Y-216041570D01*
X164208371Y-182219345D02*
X164671736Y-181900674D01*
X203698639Y-215594397D02*
X205635472Y-215436956D01*
X233977239Y-220428900D02*
X234552915Y-220694861D01*
X232864473Y-219934528D02*
X233977239Y-220428900D01*
X231657656Y-219429477D02*
X232864473Y-219934528D01*
X229729781Y-218690504D02*
X231657656Y-219429477D01*
X214886242Y-215486566D02*
X216402429Y-215627814D01*
X213304944Y-215380801D02*
X214886242Y-215486566D01*
X202564169Y-215710841D02*
X203698639Y-215594397D01*
X180136426Y-188397091D02*
X195552711Y-188397091D01*
X163908992Y-191113549D02*
X163908992Y-183423062D01*
X226153427Y-217527785D02*
X227776067Y-218022500D01*
X162923695Y-192731710D02*
X163460785Y-192304863D01*
X223383570Y-216804659D02*
X224962458Y-217198433D01*
X221793314Y-216458082D02*
X223383570Y-216804659D01*
X208469408Y-215309832D02*
X209434723Y-215294329D01*
X199536275Y-215793179D02*
X200915002Y-215913757D01*
X216402429Y-215627814D02*
X217890021Y-215804892D01*
X219507838Y-216041570D02*
X221793314Y-216458082D01*
X197528301Y-213409173D02*
X197889347Y-214578783D01*
X207148903Y-215354274D02*
X208469408Y-215309832D01*
X199111495Y-215640906D02*
X199536275Y-215793179D01*
X197889347Y-214578783D02*
X198787656Y-215471752D01*
X197375167Y-189642148D02*
X197528301Y-190267089D01*
X163460785Y-192304863D02*
X163802711Y-191803601D01*
X163802711Y-191803601D02*
X163908992Y-191113549D01*
X178548926Y-183493686D02*
X178548926Y-186915700D01*
X177243579Y-181835562D02*
X177869036Y-182010573D01*
X197033930Y-189141231D02*
X197375167Y-189642148D01*
X197528301Y-190267089D02*
X197528301Y-213409173D01*
X227776067Y-218022500D02*
X229729781Y-218690504D01*
X212081935Y-215327058D02*
X213304944Y-215380801D01*
X201585418Y-215913757D02*
X202564169Y-215710841D01*
X195552711Y-188397091D02*
X196333887Y-188650650D01*
X196333887Y-188650650D02*
X197033930Y-189141231D01*
X142112907Y-192849532D02*
X143095103Y-193053482D01*
X141702424Y-192611476D02*
X142112907Y-192849532D01*
X141082479Y-191784309D02*
X141304515Y-192201510D01*
X140942780Y-183670075D02*
X140942780Y-191254797D01*
X140731423Y-182682711D02*
X140892137Y-183179149D01*
X140392771Y-182190751D02*
X140731423Y-182682711D01*
X139038159Y-181694313D02*
X139515994Y-181738755D01*
X121089039Y-180521947D02*
X121278864Y-180892295D01*
X123180557Y-181694313D02*
X139038159Y-181694313D01*
X139966095Y-181886205D02*
X140392771Y-182190751D01*
X122295856Y-181597506D02*
X123180557Y-181694313D01*
X121651451Y-181276423D02*
X122295856Y-181597506D01*
X121278864Y-180892295D02*
X121651451Y-181276423D01*
X120975523Y-179824315D02*
X121089039Y-180521947D01*
X120975523Y-179057781D02*
X120975523Y-179824315D01*
X161650904Y-100978826D02*
X160892122Y-101217055D01*
X121240107Y-109141291D02*
X120975523Y-110080596D01*
X214990973Y-102178409D02*
X199539548Y-102178409D01*
X121903115Y-108468808D02*
X121240107Y-109141291D01*
X123092190Y-108175631D02*
X122445546Y-108175631D01*
X199038803Y-102375468D02*
X198554423Y-102766314D01*
X122445546Y-108175631D02*
X121903115Y-108468808D01*
X158475904Y-108175631D02*
X156664990Y-108175631D01*
X160323509Y-101677319D02*
X159816391Y-102707575D01*
X199539548Y-102178409D02*
X199038803Y-102375468D01*
X183328134Y-107241493D02*
X183048393Y-106838589D01*
X217107640Y-100731985D02*
X217107640Y-101331776D01*
X217107640Y-101331776D02*
X216496825Y-101825631D01*
X182888023Y-102319485D02*
X182683385Y-101705569D01*
X183048393Y-106838589D02*
X182888023Y-106235353D01*
X192765973Y-107575840D02*
X188650290Y-107575840D01*
X198057468Y-106235353D02*
X197862303Y-106888026D01*
X198057468Y-105565110D02*
X198057468Y-106235353D01*
X215837778Y-102178409D02*
X214990973Y-102178409D01*
X184263822Y-107575840D02*
X183328134Y-107241493D01*
X133381657Y-108175631D02*
X123092190Y-108175631D01*
X156664990Y-108175631D02*
X133381657Y-108175631D01*
X198057468Y-104271649D02*
X198057468Y-105565110D01*
X181476912Y-100978826D02*
X161650904Y-100978826D01*
X139515994Y-181738755D02*
X139966095Y-181886205D01*
X159816391Y-102707575D02*
X159816391Y-106799660D01*
X182128035Y-101187255D02*
X181476912Y-100978826D01*
X197862303Y-106888026D02*
X197257172Y-107388771D01*
X217107640Y-98791707D02*
X217122798Y-99922388D01*
X162215211Y-193053482D02*
X162923695Y-192731710D01*
X145052779Y-193053482D02*
X162215211Y-193053482D01*
X143095103Y-193053482D02*
X145052779Y-193053482D01*
X160892122Y-101217055D02*
X160323509Y-101677319D01*
X217122798Y-99922388D02*
X217107640Y-100731985D01*
X141304515Y-192201510D02*
X141702424Y-192611476D01*
X140942780Y-191254797D02*
X141082479Y-191784309D01*
X140892137Y-183179149D02*
X140942780Y-183670075D01*
X159816391Y-106799660D02*
X159501854Y-107575840D01*
X198057468Y-103801049D02*
X198057468Y-104271649D01*
X182683385Y-101705569D02*
X182128035Y-101187255D01*
X197257172Y-107388771D02*
X195588196Y-107575840D01*
X216496825Y-101825631D02*
X215837778Y-102178409D01*
X195588196Y-107575840D02*
X192765973Y-107575840D01*
X120975523Y-110080596D02*
X120975523Y-111444337D01*
X182888023Y-106235353D02*
X182888023Y-102319485D01*
X159501854Y-107575840D02*
X158475904Y-108175631D01*
X198554423Y-102766314D02*
X198057468Y-103801049D01*
X120975523Y-111444337D02*
X120975523Y-179057781D01*
X188650290Y-107575840D02*
X184263822Y-107575840D01*
X217234420Y-98042571D02*
X217107640Y-98791707D01*
X218412987Y-97239520D02*
X217739471Y-97407640D01*
X237568751Y-97239520D02*
X218412987Y-97239520D01*
X239015002Y-97239520D02*
X237568751Y-97239520D01*
X239819088Y-97548717D02*
X239015002Y-97239520D01*
X240121567Y-97939908D02*
X239819088Y-97548717D01*
X240285209Y-98615319D02*
X240121567Y-97939908D01*
X240506729Y-105386481D02*
X240285209Y-104718305D01*
X240943911Y-105934768D02*
X240506729Y-105386481D01*
X242084238Y-106411742D02*
X240943911Y-105934768D01*
X217739471Y-97407640D02*
X217234420Y-98042571D01*
X240285209Y-104718305D02*
X240285209Y-98615319D01*
X261416391Y-106411742D02*
X242084238Y-106411742D01*
X262335887Y-106918171D02*
X261948658Y-106662028D01*
X261948658Y-106662028D02*
X261416391Y-106411742D01*
X262938779Y-107543456D02*
X262672128Y-107214966D01*
X266313594Y-187327389D02*
X265077150Y-186094733D01*
X263250904Y-108352020D02*
X263137561Y-107920349D01*
X263250904Y-109533687D02*
X263250904Y-108352020D01*
X263250904Y-180177437D02*
X263250904Y-109533687D01*
X254586834Y-235126366D02*
X255556628Y-236024158D01*
X263250904Y-181853132D02*
X263250904Y-180177437D01*
X264299592Y-185286514D02*
X263856208Y-184584748D01*
X256617029Y-236976382D02*
X257387696Y-237623371D01*
X287874724Y-210904589D02*
X288078674Y-210649996D01*
X255556628Y-236024158D02*
X256617029Y-236976382D01*
X244270151Y-226428189D02*
X245421157Y-227269137D01*
X236984118Y-221909602D02*
X237887078Y-222396738D01*
X288244728Y-209981647D02*
X288138963Y-209334314D01*
X249349255Y-230404518D02*
X250485448Y-231384992D01*
X250485448Y-231384992D02*
X252059856Y-232790936D01*
X288078674Y-210649996D02*
X288214755Y-210297907D01*
X263387330Y-235011644D02*
X287874724Y-210904589D01*
X261031574Y-237330538D02*
X262054767Y-236323537D01*
X259609783Y-238356143D02*
X259939479Y-238230397D01*
X259167433Y-238430557D02*
X259609783Y-238356143D01*
X253853717Y-234443548D02*
X254586834Y-235126366D01*
X263856208Y-184584748D02*
X263617807Y-184018030D01*
X287336256Y-208285971D02*
X266313594Y-187327389D01*
X239865596Y-223533620D02*
X240906360Y-224171651D01*
X258649979Y-238375091D02*
X259167433Y-238430557D01*
X237887078Y-222396738D02*
X238915439Y-222975514D01*
X287910209Y-208858202D02*
X287336256Y-208285971D01*
X265077150Y-186094733D02*
X264299592Y-185286514D01*
X259939479Y-238230397D02*
X260289156Y-238021280D01*
X240906360Y-224171651D02*
X242054954Y-224909935D01*
X246877055Y-228383280D02*
X247961915Y-229250756D01*
X235441405Y-221121708D02*
X236180722Y-221492401D01*
X238915439Y-222975514D02*
X239865596Y-223533620D01*
X263617807Y-184018030D02*
X263366660Y-183096811D01*
X247961915Y-229250756D02*
X249349255Y-230404518D01*
X245421157Y-227269137D02*
X246877055Y-228383280D01*
X288138963Y-209334314D02*
X287910209Y-208858202D01*
X288214755Y-210297907D02*
X288244728Y-209981647D01*
X242054954Y-224909935D02*
X243313792Y-225755706D01*
X260289156Y-238021280D02*
X260640556Y-237715700D01*
X257924098Y-238032648D02*
X258649979Y-238375091D01*
X252059856Y-232790936D02*
X253853717Y-234443548D01*
X236180722Y-221492401D02*
X236984118Y-221909602D01*
X234552915Y-220694861D02*
X235441405Y-221121708D01*
X260640556Y-237715700D02*
X261031574Y-237330538D01*
X263366660Y-183096811D02*
X263250904Y-181853132D01*
X262672128Y-107214966D02*
X262335887Y-106918171D01*
X263137561Y-107920349D02*
X262938779Y-107543456D01*
X257387696Y-237623371D02*
X257924098Y-238032648D01*
X243313792Y-225755706D02*
X244270151Y-226428189D01*
X262054767Y-236323537D02*
X263387330Y-235011644D01*
X115129300Y-87252800D02*
G75*
G02*
X115129300Y-87252800I0J0D01*
G01*
M02*
