M48
; DRILL file {KiCad (5.1.6-0-10_14)} date Sunday, August 23, 2020 at 12:26:21 AM
; FORMAT={-:-/ absolute / metric / decimal}
; #@! TF.CreationDate,2020-08-23T00:26:21+08:00
; #@! TF.GenerationSoftware,Kicad,Pcbnew,(5.1.6-0-10_14)
; #@! TF.FileFunction,NonPlated,1,2,NPTH
FMAT,2
METRIC
T1C1.750
T2C3.988
%
G90
G05
T1
X258.155Y-216.711
X265.339Y-209.527
X204.584Y-133.02
X214.744Y-133.02
X204.584Y-171.12
X214.744Y-171.12
X242.684Y-120.828
X252.844Y-120.828
X185.534Y-138.354
X195.694Y-138.354
X166.484Y-112.636
X176.644Y-112.636
X166.484Y-169.786
X176.644Y-169.786
X223.634Y-166.167
X233.794Y-166.167
X242.684Y-139.878
X252.844Y-139.878
X242.684Y-177.978
X252.844Y-177.978
X223.634Y-109.017
X233.794Y-109.017
X204.584Y-152.07
X214.744Y-152.07
X185.534Y-176.454
X195.694Y-176.454
X185.534Y-157.404
X195.694Y-157.404
X223.634Y-128.067
X233.794Y-128.067
X223.634Y-147.117
X233.794Y-147.117
X166.484Y-150.736
X176.644Y-150.736
X152.527Y-148.603
X152.527Y-158.763
X147.434Y-120.066
X157.594Y-120.066
X147.434Y-181.407
X157.594Y-181.407
X234.803Y-205.771
X239.415Y-196.718
X204.584Y-113.97
X214.744Y-113.97
X185.534Y-119.304
X195.694Y-119.304
X209.626Y-194.373
X209.626Y-204.534
X166.484Y-131.686
X176.644Y-131.686
X128.384Y-164.833
X138.544Y-164.833
X242.684Y-158.928
X252.844Y-158.928
T2
X237.109Y-201.244
X209.664Y-113.97
X190.614Y-119.304
X209.626Y-199.453
X171.564Y-131.686
X133.464Y-164.833
X247.764Y-158.928
X261.747Y-213.119
X209.664Y-133.02
X209.664Y-171.12
X247.764Y-120.828
X190.614Y-138.354
X171.564Y-112.636
X171.564Y-169.786
X228.714Y-166.167
X247.764Y-139.878
X247.764Y-177.978
X228.714Y-109.017
X209.664Y-152.07
X190.614Y-176.454
X190.614Y-157.404
X228.714Y-128.067
X228.714Y-147.117
X171.564Y-150.736
X152.527Y-153.683
X152.514Y-120.066
X152.514Y-181.407
T0
M30
