G04 #@! TF.GenerationSoftware,KiCad,Pcbnew,(5.1.6-0-10_14)*
G04 #@! TF.CreationDate,2020-08-23T00:26:13+08:00*
G04 #@! TF.ProjectId,Geopad,47656f70-6164-42e6-9b69-6361645f7063,rev?*
G04 #@! TF.SameCoordinates,Original*
G04 #@! TF.FileFunction,Legend,Bot*
G04 #@! TF.FilePolarity,Positive*
%FSLAX46Y46*%
G04 Gerber Fmt 4.6, Leading zero omitted, Abs format (unit mm)*
G04 Created by KiCad (PCBNEW (5.1.6-0-10_14)) date 2020-08-23 00:26:13*
%MOMM*%
%LPD*%
G01*
G04 APERTURE LIST*
%ADD10C,0.010000*%
%ADD11C,0.120000*%
%ADD12C,0.381000*%
%ADD13C,0.150000*%
%ADD14C,0.203200*%
G04 APERTURE END LIST*
D10*
G36*
X198209589Y-118419223D02*
G01*
X195471374Y-118870221D01*
X195250929Y-118916854D01*
X194480458Y-119100503D01*
X193625876Y-119333514D01*
X192758662Y-119592881D01*
X191950299Y-119855602D01*
X191272268Y-120098672D01*
X190796052Y-120299087D01*
X190612011Y-120409729D01*
X190632273Y-120595355D01*
X190752495Y-121064277D01*
X190961373Y-121779925D01*
X191247600Y-122705728D01*
X191599872Y-123805116D01*
X192006883Y-125041517D01*
X192455515Y-126373044D01*
X194441007Y-132201576D01*
X195899504Y-131859716D01*
X196811188Y-131703880D01*
X197984119Y-131590831D01*
X199343592Y-131520538D01*
X200814904Y-131492973D01*
X202323352Y-131508106D01*
X203794231Y-131565907D01*
X205152840Y-131666347D01*
X206324473Y-131809396D01*
X206646559Y-131863955D01*
X207501126Y-132011442D01*
X208072905Y-132083453D01*
X208408510Y-132083196D01*
X208554553Y-132013876D01*
X208563733Y-131995844D01*
X208693151Y-131620209D01*
X208890593Y-130998107D01*
X209142694Y-130175692D01*
X209436092Y-129199117D01*
X209757423Y-128114535D01*
X210093323Y-126968100D01*
X210430429Y-125805964D01*
X210755378Y-124674281D01*
X211054806Y-123619205D01*
X211315350Y-122686889D01*
X211523647Y-121923485D01*
X211666332Y-121375148D01*
X211730042Y-121088030D01*
X211730940Y-121057270D01*
X211496646Y-120866777D01*
X211012455Y-120595591D01*
X210347821Y-120275760D01*
X209572198Y-119939330D01*
X208755041Y-119618346D01*
X208148345Y-119404245D01*
X205723496Y-118736150D01*
X203289512Y-118350444D01*
X200800256Y-118245383D01*
X198209589Y-118419223D01*
G37*
X198209589Y-118419223D02*
X195471374Y-118870221D01*
X195250929Y-118916854D01*
X194480458Y-119100503D01*
X193625876Y-119333514D01*
X192758662Y-119592881D01*
X191950299Y-119855602D01*
X191272268Y-120098672D01*
X190796052Y-120299087D01*
X190612011Y-120409729D01*
X190632273Y-120595355D01*
X190752495Y-121064277D01*
X190961373Y-121779925D01*
X191247600Y-122705728D01*
X191599872Y-123805116D01*
X192006883Y-125041517D01*
X192455515Y-126373044D01*
X194441007Y-132201576D01*
X195899504Y-131859716D01*
X196811188Y-131703880D01*
X197984119Y-131590831D01*
X199343592Y-131520538D01*
X200814904Y-131492973D01*
X202323352Y-131508106D01*
X203794231Y-131565907D01*
X205152840Y-131666347D01*
X206324473Y-131809396D01*
X206646559Y-131863955D01*
X207501126Y-132011442D01*
X208072905Y-132083453D01*
X208408510Y-132083196D01*
X208554553Y-132013876D01*
X208563733Y-131995844D01*
X208693151Y-131620209D01*
X208890593Y-130998107D01*
X209142694Y-130175692D01*
X209436092Y-129199117D01*
X209757423Y-128114535D01*
X210093323Y-126968100D01*
X210430429Y-125805964D01*
X210755378Y-124674281D01*
X211054806Y-123619205D01*
X211315350Y-122686889D01*
X211523647Y-121923485D01*
X211666332Y-121375148D01*
X211730042Y-121088030D01*
X211730940Y-121057270D01*
X211496646Y-120866777D01*
X211012455Y-120595591D01*
X210347821Y-120275760D01*
X209572198Y-119939330D01*
X208755041Y-119618346D01*
X208148345Y-119404245D01*
X205723496Y-118736150D01*
X203289512Y-118350444D01*
X200800256Y-118245383D01*
X198209589Y-118419223D01*
G36*
X198700733Y-132751099D02*
G01*
X196443481Y-133012728D01*
X194280713Y-133408747D01*
X192805547Y-133781914D01*
X192222817Y-133956822D01*
X191781324Y-134102240D01*
X191569869Y-134188776D01*
X191565394Y-134192428D01*
X191585703Y-134375469D01*
X191731637Y-134730033D01*
X191768960Y-134804255D01*
X192022530Y-135172665D01*
X192273338Y-135248921D01*
X192331779Y-135231326D01*
X194384723Y-134589421D01*
X196660732Y-134157682D01*
X199116616Y-133936982D01*
X201709182Y-133928196D01*
X204395239Y-134132200D01*
X207131596Y-134549869D01*
X208759221Y-134898547D01*
X209480229Y-135068824D01*
X210066970Y-135205355D01*
X210449119Y-135291902D01*
X210559805Y-135314267D01*
X210636486Y-135173607D01*
X210710037Y-134936187D01*
X210741073Y-134591817D01*
X210687454Y-134437296D01*
X210404224Y-134277449D01*
X209857517Y-134067048D01*
X209115261Y-133825298D01*
X208245384Y-133571402D01*
X207315813Y-133324566D01*
X206394476Y-133103995D01*
X205549301Y-132928893D01*
X205062666Y-132847043D01*
X203107998Y-132660807D01*
X200954796Y-132631309D01*
X198700733Y-132751099D01*
G37*
X198700733Y-132751099D02*
X196443481Y-133012728D01*
X194280713Y-133408747D01*
X192805547Y-133781914D01*
X192222817Y-133956822D01*
X191781324Y-134102240D01*
X191569869Y-134188776D01*
X191565394Y-134192428D01*
X191585703Y-134375469D01*
X191731637Y-134730033D01*
X191768960Y-134804255D01*
X192022530Y-135172665D01*
X192273338Y-135248921D01*
X192331779Y-135231326D01*
X194384723Y-134589421D01*
X196660732Y-134157682D01*
X199116616Y-133936982D01*
X201709182Y-133928196D01*
X204395239Y-134132200D01*
X207131596Y-134549869D01*
X208759221Y-134898547D01*
X209480229Y-135068824D01*
X210066970Y-135205355D01*
X210449119Y-135291902D01*
X210559805Y-135314267D01*
X210636486Y-135173607D01*
X210710037Y-134936187D01*
X210741073Y-134591817D01*
X210687454Y-134437296D01*
X210404224Y-134277449D01*
X209857517Y-134067048D01*
X209115261Y-133825298D01*
X208245384Y-133571402D01*
X207315813Y-133324566D01*
X206394476Y-133103995D01*
X205549301Y-132928893D01*
X205062666Y-132847043D01*
X203107998Y-132660807D01*
X200954796Y-132631309D01*
X198700733Y-132751099D01*
G36*
X195840743Y-135559062D02*
G01*
X194655415Y-135902940D01*
X193577631Y-136497961D01*
X192660026Y-137317196D01*
X191955237Y-138333716D01*
X191610983Y-139166600D01*
X191566194Y-139399634D01*
X191673113Y-139511175D01*
X192007465Y-139545523D01*
X192262240Y-139547600D01*
X192762181Y-139519238D01*
X193051091Y-139394742D01*
X193254575Y-139114995D01*
X193278689Y-139069208D01*
X193696106Y-138486918D01*
X194297816Y-137910676D01*
X194964355Y-137440439D01*
X195525681Y-137189146D01*
X196630912Y-137016944D01*
X197644286Y-137153386D01*
X198602792Y-137608800D01*
X199427111Y-138278571D01*
X200310889Y-139133319D01*
X200637673Y-138378401D01*
X200813721Y-137890907D01*
X200889430Y-137510963D01*
X200879378Y-137401771D01*
X200647725Y-137108399D01*
X200192457Y-136738804D01*
X199601220Y-136350231D01*
X198961659Y-135999922D01*
X198361418Y-135745122D01*
X198323484Y-135732454D01*
X197080978Y-135493258D01*
X195840743Y-135559062D01*
G37*
X195840743Y-135559062D02*
X194655415Y-135902940D01*
X193577631Y-136497961D01*
X192660026Y-137317196D01*
X191955237Y-138333716D01*
X191610983Y-139166600D01*
X191566194Y-139399634D01*
X191673113Y-139511175D01*
X192007465Y-139545523D01*
X192262240Y-139547600D01*
X192762181Y-139519238D01*
X193051091Y-139394742D01*
X193254575Y-139114995D01*
X193278689Y-139069208D01*
X193696106Y-138486918D01*
X194297816Y-137910676D01*
X194964355Y-137440439D01*
X195525681Y-137189146D01*
X196630912Y-137016944D01*
X197644286Y-137153386D01*
X198602792Y-137608800D01*
X199427111Y-138278571D01*
X200310889Y-139133319D01*
X200637673Y-138378401D01*
X200813721Y-137890907D01*
X200889430Y-137510963D01*
X200879378Y-137401771D01*
X200647725Y-137108399D01*
X200192457Y-136738804D01*
X199601220Y-136350231D01*
X198961659Y-135999922D01*
X198361418Y-135745122D01*
X198323484Y-135732454D01*
X197080978Y-135493258D01*
X195840743Y-135559062D01*
G36*
X196865591Y-138045607D02*
G01*
X196969778Y-138166562D01*
X197292995Y-138447193D01*
X197783284Y-138844051D01*
X198312820Y-139255799D01*
X199042475Y-139791923D01*
X199533058Y-140101836D01*
X199781208Y-140183565D01*
X199813333Y-140136736D01*
X199681152Y-139811205D01*
X199337882Y-139384009D01*
X198863432Y-138926729D01*
X198337712Y-138510947D01*
X197840632Y-138208245D01*
X197538808Y-138099247D01*
X197123767Y-138038865D01*
X196882796Y-138036885D01*
X196865591Y-138045607D01*
G37*
X196865591Y-138045607D02*
X196969778Y-138166562D01*
X197292995Y-138447193D01*
X197783284Y-138844051D01*
X198312820Y-139255799D01*
X199042475Y-139791923D01*
X199533058Y-140101836D01*
X199781208Y-140183565D01*
X199813333Y-140136736D01*
X199681152Y-139811205D01*
X199337882Y-139384009D01*
X198863432Y-138926729D01*
X198337712Y-138510947D01*
X197840632Y-138208245D01*
X197538808Y-138099247D01*
X197123767Y-138038865D01*
X196882796Y-138036885D01*
X196865591Y-138045607D01*
G36*
X206937336Y-138052314D02*
G01*
X207000572Y-138169360D01*
X207288795Y-138445054D01*
X207754435Y-138837033D01*
X208293478Y-139260014D01*
X208893043Y-139708759D01*
X209379948Y-140057169D01*
X209700949Y-140268235D01*
X209804000Y-140309939D01*
X209695213Y-139978716D01*
X209421216Y-139528725D01*
X209060551Y-139076313D01*
X208798384Y-138820322D01*
X208342793Y-138510113D01*
X207807217Y-138245847D01*
X207307258Y-138075231D01*
X206958515Y-138045968D01*
X206937336Y-138052314D01*
G37*
X206937336Y-138052314D02*
X207000572Y-138169360D01*
X207288795Y-138445054D01*
X207754435Y-138837033D01*
X208293478Y-139260014D01*
X208893043Y-139708759D01*
X209379948Y-140057169D01*
X209700949Y-140268235D01*
X209804000Y-140309939D01*
X209695213Y-139978716D01*
X209421216Y-139528725D01*
X209060551Y-139076313D01*
X208798384Y-138820322D01*
X208342793Y-138510113D01*
X207807217Y-138245847D01*
X207307258Y-138075231D01*
X206958515Y-138045968D01*
X206937336Y-138052314D01*
G36*
X195131840Y-138332303D02*
G01*
X194510256Y-138651194D01*
X196991650Y-140623397D01*
X197776204Y-141243329D01*
X198468360Y-141783359D01*
X199025299Y-142210640D01*
X199404204Y-142492328D01*
X199562255Y-142595578D01*
X199562713Y-142595600D01*
X199681051Y-142456794D01*
X199817524Y-142161243D01*
X199940779Y-141786098D01*
X199982666Y-141575321D01*
X199857252Y-141422890D01*
X199510727Y-141099590D01*
X198987669Y-140644560D01*
X198332654Y-140096941D01*
X197868045Y-139718583D01*
X195753424Y-138013411D01*
X195131840Y-138332303D01*
G37*
X195131840Y-138332303D02*
X194510256Y-138651194D01*
X196991650Y-140623397D01*
X197776204Y-141243329D01*
X198468360Y-141783359D01*
X199025299Y-142210640D01*
X199404204Y-142492328D01*
X199562255Y-142595578D01*
X199562713Y-142595600D01*
X199681051Y-142456794D01*
X199817524Y-142161243D01*
X199940779Y-141786098D01*
X199982666Y-141575321D01*
X199857252Y-141422890D01*
X199510727Y-141099590D01*
X198987669Y-140644560D01*
X198332654Y-140096941D01*
X197868045Y-139718583D01*
X195753424Y-138013411D01*
X195131840Y-138332303D01*
G36*
X205135957Y-138317127D02*
G01*
X204763869Y-138517811D01*
X204569580Y-138668107D01*
X204561176Y-138689963D01*
X204688837Y-138815853D01*
X205033585Y-139107691D01*
X205544072Y-139524932D01*
X206168948Y-140027037D01*
X206856865Y-140573462D01*
X207556475Y-141123667D01*
X208216430Y-141637108D01*
X208785380Y-142073244D01*
X209211977Y-142391533D01*
X209444872Y-142551434D01*
X209464008Y-142560962D01*
X209601367Y-142454353D01*
X209763866Y-142127495D01*
X209784752Y-142070027D01*
X209912008Y-141693502D01*
X209972529Y-141491856D01*
X209973333Y-141485526D01*
X209848153Y-141370786D01*
X209502142Y-141081640D01*
X208979596Y-140654401D01*
X208324812Y-140125381D01*
X207845291Y-139740959D01*
X205717248Y-138039929D01*
X205135957Y-138317127D01*
G37*
X205135957Y-138317127D02*
X204763869Y-138517811D01*
X204569580Y-138668107D01*
X204561176Y-138689963D01*
X204688837Y-138815853D01*
X205033585Y-139107691D01*
X205544072Y-139524932D01*
X206168948Y-140027037D01*
X206856865Y-140573462D01*
X207556475Y-141123667D01*
X208216430Y-141637108D01*
X208785380Y-142073244D01*
X209211977Y-142391533D01*
X209444872Y-142551434D01*
X209464008Y-142560962D01*
X209601367Y-142454353D01*
X209763866Y-142127495D01*
X209784752Y-142070027D01*
X209912008Y-141693502D01*
X209972529Y-141491856D01*
X209973333Y-141485526D01*
X209848153Y-141370786D01*
X209502142Y-141081640D01*
X208979596Y-140654401D01*
X208324812Y-140125381D01*
X207845291Y-139740959D01*
X205717248Y-138039929D01*
X205135957Y-138317127D01*
G36*
X193920701Y-139366780D02*
G01*
X193701171Y-139603323D01*
X193518489Y-139932675D01*
X193440855Y-140239385D01*
X193491257Y-140383992D01*
X193667012Y-140528525D01*
X194055518Y-140845421D01*
X194606475Y-141293730D01*
X195269587Y-141832505D01*
X195580000Y-142084487D01*
X196288714Y-142660286D01*
X196919184Y-143173714D01*
X197417088Y-143580443D01*
X197728100Y-143836146D01*
X197788316Y-143886472D01*
X198012761Y-144003799D01*
X198292234Y-143941963D01*
X198616761Y-143763013D01*
X198967229Y-143521173D01*
X199054668Y-143350568D01*
X198948445Y-143201225D01*
X198761376Y-143045092D01*
X198362641Y-142721673D01*
X197806072Y-142273935D01*
X197145499Y-141744842D01*
X196434754Y-141177362D01*
X195727670Y-140614460D01*
X195078077Y-140099103D01*
X194539807Y-139674256D01*
X194166692Y-139382887D01*
X194108878Y-139338492D01*
X193920701Y-139366780D01*
G37*
X193920701Y-139366780D02*
X193701171Y-139603323D01*
X193518489Y-139932675D01*
X193440855Y-140239385D01*
X193491257Y-140383992D01*
X193667012Y-140528525D01*
X194055518Y-140845421D01*
X194606475Y-141293730D01*
X195269587Y-141832505D01*
X195580000Y-142084487D01*
X196288714Y-142660286D01*
X196919184Y-143173714D01*
X197417088Y-143580443D01*
X197728100Y-143836146D01*
X197788316Y-143886472D01*
X198012761Y-144003799D01*
X198292234Y-143941963D01*
X198616761Y-143763013D01*
X198967229Y-143521173D01*
X199054668Y-143350568D01*
X198948445Y-143201225D01*
X198761376Y-143045092D01*
X198362641Y-142721673D01*
X197806072Y-142273935D01*
X197145499Y-141744842D01*
X196434754Y-141177362D01*
X195727670Y-140614460D01*
X195078077Y-140099103D01*
X194539807Y-139674256D01*
X194166692Y-139382887D01*
X194108878Y-139338492D01*
X193920701Y-139366780D01*
G36*
X203618562Y-139726160D02*
G01*
X203449025Y-140117707D01*
X203463037Y-140351459D01*
X203565765Y-140475456D01*
X203766330Y-140645966D01*
X204172231Y-140981723D01*
X204725217Y-141435326D01*
X205367040Y-141959378D01*
X206039450Y-142506478D01*
X206684196Y-143029230D01*
X207243029Y-143480233D01*
X207657700Y-143812088D01*
X207864532Y-143973438D01*
X208112815Y-143978754D01*
X208478993Y-143816377D01*
X208513512Y-143794373D01*
X208820538Y-143544826D01*
X208938892Y-143349800D01*
X208936471Y-143336578D01*
X208792780Y-143181455D01*
X208433316Y-142860359D01*
X207908528Y-142416654D01*
X207268863Y-141893704D01*
X207102157Y-141759863D01*
X206366887Y-141171207D01*
X205658204Y-140603069D01*
X205053471Y-140117517D01*
X204630049Y-139776616D01*
X204607463Y-139758372D01*
X203898260Y-139185285D01*
X203618562Y-139726160D01*
G37*
X203618562Y-139726160D02*
X203449025Y-140117707D01*
X203463037Y-140351459D01*
X203565765Y-140475456D01*
X203766330Y-140645966D01*
X204172231Y-140981723D01*
X204725217Y-141435326D01*
X205367040Y-141959378D01*
X206039450Y-142506478D01*
X206684196Y-143029230D01*
X207243029Y-143480233D01*
X207657700Y-143812088D01*
X207864532Y-143973438D01*
X208112815Y-143978754D01*
X208478993Y-143816377D01*
X208513512Y-143794373D01*
X208820538Y-143544826D01*
X208938892Y-143349800D01*
X208936471Y-143336578D01*
X208792780Y-143181455D01*
X208433316Y-142860359D01*
X207908528Y-142416654D01*
X207268863Y-141893704D01*
X207102157Y-141759863D01*
X206366887Y-141171207D01*
X205658204Y-140603069D01*
X205053471Y-140117517D01*
X204630049Y-139776616D01*
X204607463Y-139758372D01*
X203898260Y-139185285D01*
X203618562Y-139726160D01*
G36*
X193255094Y-141516410D02*
G01*
X193279311Y-141681434D01*
X193688845Y-142698091D01*
X194354139Y-143511017D01*
X195237607Y-144085725D01*
X196215000Y-144375081D01*
X196651898Y-144428716D01*
X196907327Y-144431183D01*
X196934666Y-144415781D01*
X196811819Y-144287590D01*
X196473905Y-143983738D01*
X195966870Y-143544359D01*
X195336658Y-143009591D01*
X195047326Y-142767064D01*
X194315407Y-142160412D01*
X193805117Y-141753446D01*
X193481564Y-141524742D01*
X193309854Y-141452872D01*
X193255094Y-141516410D01*
G37*
X193255094Y-141516410D02*
X193279311Y-141681434D01*
X193688845Y-142698091D01*
X194354139Y-143511017D01*
X195237607Y-144085725D01*
X196215000Y-144375081D01*
X196651898Y-144428716D01*
X196907327Y-144431183D01*
X196934666Y-144415781D01*
X196811819Y-144287590D01*
X196473905Y-143983738D01*
X195966870Y-143544359D01*
X195336658Y-143009591D01*
X195047326Y-142767064D01*
X194315407Y-142160412D01*
X193805117Y-141753446D01*
X193481564Y-141524742D01*
X193309854Y-141452872D01*
X193255094Y-141516410D01*
G36*
X203251170Y-141471986D02*
G01*
X203222608Y-141715175D01*
X203355673Y-142133819D01*
X203603653Y-142636372D01*
X203919838Y-143131286D01*
X204257515Y-143527014D01*
X204334672Y-143595500D01*
X204993307Y-144001469D01*
X205799311Y-144309388D01*
X206575169Y-144454452D01*
X206697936Y-144458267D01*
X206898802Y-144427859D01*
X206807631Y-144286271D01*
X206749952Y-144232554D01*
X206196659Y-143743981D01*
X205571283Y-143215609D01*
X204927889Y-142690094D01*
X204320543Y-142210095D01*
X203803311Y-141818271D01*
X203430258Y-141557279D01*
X203255449Y-141469778D01*
X203251170Y-141471986D01*
G37*
X203251170Y-141471986D02*
X203222608Y-141715175D01*
X203355673Y-142133819D01*
X203603653Y-142636372D01*
X203919838Y-143131286D01*
X204257515Y-143527014D01*
X204334672Y-143595500D01*
X204993307Y-144001469D01*
X205799311Y-144309388D01*
X206575169Y-144454452D01*
X206697936Y-144458267D01*
X206898802Y-144427859D01*
X206807631Y-144286271D01*
X206749952Y-144232554D01*
X206196659Y-143743981D01*
X205571283Y-143215609D01*
X204927889Y-142690094D01*
X204320543Y-142210095D01*
X203803311Y-141818271D01*
X203430258Y-141557279D01*
X203255449Y-141469778D01*
X203251170Y-141471986D01*
G36*
X170518666Y-137176934D02*
G01*
X175768000Y-137176934D01*
X175768000Y-140394267D01*
X170688000Y-140394267D01*
X170688000Y-141918267D01*
X175768000Y-141918267D01*
X175768000Y-145135600D01*
X170518666Y-145135600D01*
X170518666Y-146828934D01*
X177292000Y-146828934D01*
X177292000Y-135483600D01*
X170518666Y-135483600D01*
X170518666Y-137176934D01*
G37*
X170518666Y-137176934D02*
X175768000Y-137176934D01*
X175768000Y-140394267D01*
X170688000Y-140394267D01*
X170688000Y-141918267D01*
X175768000Y-141918267D01*
X175768000Y-145135600D01*
X170518666Y-145135600D01*
X170518666Y-146828934D01*
X177292000Y-146828934D01*
X177292000Y-135483600D01*
X170518666Y-135483600D01*
X170518666Y-137176934D01*
G36*
X186494424Y-135515712D02*
G01*
X186236114Y-135553819D01*
X186009506Y-135648783D01*
X185770690Y-135845141D01*
X185475759Y-136187428D01*
X185080804Y-136720180D01*
X184541915Y-137487932D01*
X184522690Y-137515600D01*
X183546305Y-138920134D01*
X182744564Y-140070757D01*
X182099609Y-140992196D01*
X181593581Y-141709175D01*
X181208622Y-142246420D01*
X180926873Y-142628656D01*
X180730476Y-142880608D01*
X180601572Y-143027002D01*
X180522303Y-143092563D01*
X180486599Y-143103600D01*
X180444465Y-142942238D01*
X180407066Y-142490013D01*
X180376240Y-141794715D01*
X180353826Y-140904136D01*
X180341663Y-139866067D01*
X180340000Y-139293600D01*
X180340000Y-135483600D01*
X178816000Y-135483600D01*
X178816000Y-146849377D01*
X179448067Y-146796822D01*
X179644142Y-146772473D01*
X179823962Y-146713692D01*
X180014616Y-146588690D01*
X180243189Y-146365675D01*
X180536770Y-146012859D01*
X180922446Y-145498451D01*
X181427303Y-144790662D01*
X182078430Y-143857700D01*
X182628057Y-143064743D01*
X183318514Y-142071004D01*
X183953640Y-141163294D01*
X184505702Y-140380736D01*
X184946968Y-139762456D01*
X185249706Y-139347578D01*
X185382657Y-139178543D01*
X185450656Y-139177562D01*
X185502904Y-139348194D01*
X185541124Y-139721456D01*
X185567039Y-140328363D01*
X185582370Y-141199934D01*
X185588840Y-142367186D01*
X185589333Y-142900400D01*
X185589333Y-146828934D01*
X187113333Y-146828934D01*
X187113333Y-135463156D01*
X186494424Y-135515712D01*
G37*
X186494424Y-135515712D02*
X186236114Y-135553819D01*
X186009506Y-135648783D01*
X185770690Y-135845141D01*
X185475759Y-136187428D01*
X185080804Y-136720180D01*
X184541915Y-137487932D01*
X184522690Y-137515600D01*
X183546305Y-138920134D01*
X182744564Y-140070757D01*
X182099609Y-140992196D01*
X181593581Y-141709175D01*
X181208622Y-142246420D01*
X180926873Y-142628656D01*
X180730476Y-142880608D01*
X180601572Y-143027002D01*
X180522303Y-143092563D01*
X180486599Y-143103600D01*
X180444465Y-142942238D01*
X180407066Y-142490013D01*
X180376240Y-141794715D01*
X180353826Y-140904136D01*
X180341663Y-139866067D01*
X180340000Y-139293600D01*
X180340000Y-135483600D01*
X178816000Y-135483600D01*
X178816000Y-146849377D01*
X179448067Y-146796822D01*
X179644142Y-146772473D01*
X179823962Y-146713692D01*
X180014616Y-146588690D01*
X180243189Y-146365675D01*
X180536770Y-146012859D01*
X180922446Y-145498451D01*
X181427303Y-144790662D01*
X182078430Y-143857700D01*
X182628057Y-143064743D01*
X183318514Y-142071004D01*
X183953640Y-141163294D01*
X184505702Y-140380736D01*
X184946968Y-139762456D01*
X185249706Y-139347578D01*
X185382657Y-139178543D01*
X185450656Y-139177562D01*
X185502904Y-139348194D01*
X185541124Y-139721456D01*
X185567039Y-140328363D01*
X185582370Y-141199934D01*
X185588840Y-142367186D01*
X185589333Y-142900400D01*
X185589333Y-146828934D01*
X187113333Y-146828934D01*
X187113333Y-135463156D01*
X186494424Y-135515712D01*
G36*
X188806666Y-146828934D02*
G01*
X190669333Y-146828934D01*
X190669333Y-135483600D01*
X188806666Y-135483600D01*
X188806666Y-146828934D01*
G37*
X188806666Y-146828934D02*
X190669333Y-146828934D01*
X190669333Y-135483600D01*
X188806666Y-135483600D01*
X188806666Y-146828934D01*
G36*
X205495252Y-135484927D02*
G01*
X204162783Y-135881188D01*
X203056601Y-136508095D01*
X202165995Y-137378159D01*
X201480250Y-138503894D01*
X200988654Y-139897813D01*
X200757712Y-141018354D01*
X200574972Y-142008579D01*
X200365298Y-142749174D01*
X200091049Y-143329008D01*
X199714588Y-143836949D01*
X199441035Y-144127180D01*
X198524043Y-144823189D01*
X197499336Y-145212060D01*
X196415613Y-145285762D01*
X195321575Y-145036264D01*
X194941455Y-144869215D01*
X194386309Y-144515977D01*
X193846019Y-144045601D01*
X193394516Y-143537913D01*
X193105736Y-143072739D01*
X193040000Y-142816241D01*
X192898483Y-142668469D01*
X192458451Y-142601278D01*
X192197524Y-142595600D01*
X191702035Y-142604541D01*
X191474523Y-142660139D01*
X191444316Y-142805556D01*
X191513807Y-143013165D01*
X192088632Y-144169312D01*
X192855539Y-145180007D01*
X193756277Y-145983315D01*
X194732594Y-146517304D01*
X194849146Y-146559350D01*
X195920552Y-146784460D01*
X197104795Y-146805233D01*
X198246818Y-146624521D01*
X198677417Y-146488912D01*
X199713503Y-145980503D01*
X200553474Y-145287343D01*
X201221458Y-144375500D01*
X201741583Y-143211036D01*
X202137976Y-141760017D01*
X202178407Y-141564865D01*
X202378006Y-140616286D01*
X202553718Y-139924752D01*
X202736455Y-139413104D01*
X202957129Y-139004185D01*
X203246653Y-138620836D01*
X203451408Y-138387433D01*
X204327226Y-137646529D01*
X205315516Y-137192767D01*
X206361259Y-137018940D01*
X207409435Y-137117844D01*
X208405022Y-137482271D01*
X209293001Y-138105016D01*
X210018351Y-138978871D01*
X210185811Y-139269461D01*
X210469405Y-140097533D01*
X210573616Y-141074821D01*
X210498445Y-142063283D01*
X210243892Y-142924876D01*
X210185811Y-143043073D01*
X209515426Y-143974742D01*
X208631778Y-144689307D01*
X207600916Y-145146214D01*
X206502000Y-145304934D01*
X205493239Y-145190229D01*
X204600105Y-144821914D01*
X203740673Y-144163684D01*
X203583107Y-144011488D01*
X202696214Y-143129901D01*
X202355440Y-143900276D01*
X202157764Y-144372635D01*
X202034794Y-144715522D01*
X202014666Y-144807122D01*
X202147672Y-145015847D01*
X202494261Y-145336523D01*
X202975790Y-145709931D01*
X203513617Y-146076852D01*
X204029099Y-146378065D01*
X204229489Y-146474930D01*
X205226170Y-146778133D01*
X206355763Y-146907655D01*
X207452841Y-146850095D01*
X207856666Y-146768834D01*
X208483148Y-146577031D01*
X209073142Y-146348038D01*
X209262672Y-146257625D01*
X210100307Y-145663789D01*
X210881693Y-144830697D01*
X211533242Y-143857311D01*
X211981363Y-142842598D01*
X212083619Y-142463916D01*
X212203633Y-141908898D01*
X216831333Y-142002934D01*
X216928709Y-145135600D01*
X211666666Y-145135600D01*
X211666666Y-146828934D01*
X218440000Y-146828934D01*
X218440000Y-135483600D01*
X211666666Y-135483600D01*
X211666666Y-137176934D01*
X216928709Y-137176934D01*
X216831333Y-140309600D01*
X214517483Y-140356618D01*
X212203633Y-140403635D01*
X212083619Y-139848618D01*
X211655511Y-138624734D01*
X210960845Y-137549351D01*
X210049097Y-136655236D01*
X208969742Y-135975159D01*
X207772256Y-135541888D01*
X206506111Y-135388192D01*
X205495252Y-135484927D01*
G37*
X205495252Y-135484927D02*
X204162783Y-135881188D01*
X203056601Y-136508095D01*
X202165995Y-137378159D01*
X201480250Y-138503894D01*
X200988654Y-139897813D01*
X200757712Y-141018354D01*
X200574972Y-142008579D01*
X200365298Y-142749174D01*
X200091049Y-143329008D01*
X199714588Y-143836949D01*
X199441035Y-144127180D01*
X198524043Y-144823189D01*
X197499336Y-145212060D01*
X196415613Y-145285762D01*
X195321575Y-145036264D01*
X194941455Y-144869215D01*
X194386309Y-144515977D01*
X193846019Y-144045601D01*
X193394516Y-143537913D01*
X193105736Y-143072739D01*
X193040000Y-142816241D01*
X192898483Y-142668469D01*
X192458451Y-142601278D01*
X192197524Y-142595600D01*
X191702035Y-142604541D01*
X191474523Y-142660139D01*
X191444316Y-142805556D01*
X191513807Y-143013165D01*
X192088632Y-144169312D01*
X192855539Y-145180007D01*
X193756277Y-145983315D01*
X194732594Y-146517304D01*
X194849146Y-146559350D01*
X195920552Y-146784460D01*
X197104795Y-146805233D01*
X198246818Y-146624521D01*
X198677417Y-146488912D01*
X199713503Y-145980503D01*
X200553474Y-145287343D01*
X201221458Y-144375500D01*
X201741583Y-143211036D01*
X202137976Y-141760017D01*
X202178407Y-141564865D01*
X202378006Y-140616286D01*
X202553718Y-139924752D01*
X202736455Y-139413104D01*
X202957129Y-139004185D01*
X203246653Y-138620836D01*
X203451408Y-138387433D01*
X204327226Y-137646529D01*
X205315516Y-137192767D01*
X206361259Y-137018940D01*
X207409435Y-137117844D01*
X208405022Y-137482271D01*
X209293001Y-138105016D01*
X210018351Y-138978871D01*
X210185811Y-139269461D01*
X210469405Y-140097533D01*
X210573616Y-141074821D01*
X210498445Y-142063283D01*
X210243892Y-142924876D01*
X210185811Y-143043073D01*
X209515426Y-143974742D01*
X208631778Y-144689307D01*
X207600916Y-145146214D01*
X206502000Y-145304934D01*
X205493239Y-145190229D01*
X204600105Y-144821914D01*
X203740673Y-144163684D01*
X203583107Y-144011488D01*
X202696214Y-143129901D01*
X202355440Y-143900276D01*
X202157764Y-144372635D01*
X202034794Y-144715522D01*
X202014666Y-144807122D01*
X202147672Y-145015847D01*
X202494261Y-145336523D01*
X202975790Y-145709931D01*
X203513617Y-146076852D01*
X204029099Y-146378065D01*
X204229489Y-146474930D01*
X205226170Y-146778133D01*
X206355763Y-146907655D01*
X207452841Y-146850095D01*
X207856666Y-146768834D01*
X208483148Y-146577031D01*
X209073142Y-146348038D01*
X209262672Y-146257625D01*
X210100307Y-145663789D01*
X210881693Y-144830697D01*
X211533242Y-143857311D01*
X211981363Y-142842598D01*
X212083619Y-142463916D01*
X212203633Y-141908898D01*
X216831333Y-142002934D01*
X216928709Y-145135600D01*
X211666666Y-145135600D01*
X211666666Y-146828934D01*
X218440000Y-146828934D01*
X218440000Y-135483600D01*
X211666666Y-135483600D01*
X211666666Y-137176934D01*
X216928709Y-137176934D01*
X216831333Y-140309600D01*
X214517483Y-140356618D01*
X212203633Y-140403635D01*
X212083619Y-139848618D01*
X211655511Y-138624734D01*
X210960845Y-137549351D01*
X210049097Y-136655236D01*
X208969742Y-135975159D01*
X207772256Y-135541888D01*
X206506111Y-135388192D01*
X205495252Y-135484927D01*
G36*
X223788625Y-135531417D02*
G01*
X222560443Y-135971877D01*
X221462762Y-136688558D01*
X220549734Y-137661150D01*
X220451886Y-137798835D01*
X219947730Y-138531600D01*
X220942348Y-138531600D01*
X221551073Y-138507632D01*
X221942407Y-138411885D01*
X222235705Y-138208596D01*
X222326636Y-138116815D01*
X222993900Y-137600911D01*
X223844671Y-137214458D01*
X224730571Y-137019483D01*
X224980175Y-137007600D01*
X226189378Y-137153016D01*
X227230213Y-137591550D01*
X228108601Y-138326634D01*
X228727168Y-139179067D01*
X229079013Y-140070193D01*
X229213542Y-141094707D01*
X229127778Y-142124363D01*
X228818747Y-143030915D01*
X228816614Y-143034966D01*
X228181903Y-143921708D01*
X227356581Y-144605644D01*
X226403575Y-145068794D01*
X225385810Y-145293175D01*
X224366210Y-145260807D01*
X223407701Y-144953708D01*
X222984908Y-144701398D01*
X222215042Y-144053176D01*
X221622041Y-143345670D01*
X221267138Y-142656238D01*
X221216929Y-142467914D01*
X221107000Y-141918267D01*
X225890666Y-141918267D01*
X225890666Y-140394267D01*
X219418984Y-140394267D01*
X219483480Y-141621934D01*
X219685308Y-142928248D01*
X220161602Y-144066135D01*
X220941121Y-145100247D01*
X221107187Y-145271700D01*
X222131821Y-146070325D01*
X223321981Y-146619242D01*
X224601199Y-146897157D01*
X225893006Y-146882773D01*
X226483333Y-146768834D01*
X227789082Y-146277566D01*
X228886572Y-145523996D01*
X229790255Y-144496506D01*
X230245086Y-143744383D01*
X230466404Y-143290574D01*
X230605541Y-142880885D01*
X230681129Y-142413031D01*
X230711801Y-141784725D01*
X230716536Y-141156267D01*
X230705570Y-140327772D01*
X230661810Y-139740188D01*
X230569187Y-139296173D01*
X230411633Y-138898385D01*
X230311234Y-138700934D01*
X229559972Y-137523337D01*
X228692923Y-136635304D01*
X227656349Y-135993466D01*
X226419877Y-135560406D01*
X225093153Y-135387489D01*
X223788625Y-135531417D01*
G37*
X223788625Y-135531417D02*
X222560443Y-135971877D01*
X221462762Y-136688558D01*
X220549734Y-137661150D01*
X220451886Y-137798835D01*
X219947730Y-138531600D01*
X220942348Y-138531600D01*
X221551073Y-138507632D01*
X221942407Y-138411885D01*
X222235705Y-138208596D01*
X222326636Y-138116815D01*
X222993900Y-137600911D01*
X223844671Y-137214458D01*
X224730571Y-137019483D01*
X224980175Y-137007600D01*
X226189378Y-137153016D01*
X227230213Y-137591550D01*
X228108601Y-138326634D01*
X228727168Y-139179067D01*
X229079013Y-140070193D01*
X229213542Y-141094707D01*
X229127778Y-142124363D01*
X228818747Y-143030915D01*
X228816614Y-143034966D01*
X228181903Y-143921708D01*
X227356581Y-144605644D01*
X226403575Y-145068794D01*
X225385810Y-145293175D01*
X224366210Y-145260807D01*
X223407701Y-144953708D01*
X222984908Y-144701398D01*
X222215042Y-144053176D01*
X221622041Y-143345670D01*
X221267138Y-142656238D01*
X221216929Y-142467914D01*
X221107000Y-141918267D01*
X225890666Y-141918267D01*
X225890666Y-140394267D01*
X219418984Y-140394267D01*
X219483480Y-141621934D01*
X219685308Y-142928248D01*
X220161602Y-144066135D01*
X220941121Y-145100247D01*
X221107187Y-145271700D01*
X222131821Y-146070325D01*
X223321981Y-146619242D01*
X224601199Y-146897157D01*
X225893006Y-146882773D01*
X226483333Y-146768834D01*
X227789082Y-146277566D01*
X228886572Y-145523996D01*
X229790255Y-144496506D01*
X230245086Y-143744383D01*
X230466404Y-143290574D01*
X230605541Y-142880885D01*
X230681129Y-142413031D01*
X230711801Y-141784725D01*
X230716536Y-141156267D01*
X230705570Y-140327772D01*
X230661810Y-139740188D01*
X230569187Y-139296173D01*
X230411633Y-138898385D01*
X230311234Y-138700934D01*
X229559972Y-137523337D01*
X228692923Y-136635304D01*
X227656349Y-135993466D01*
X226419877Y-135560406D01*
X225093153Y-135387489D01*
X223788625Y-135531417D01*
G36*
X200731752Y-147155307D02*
G01*
X200404065Y-147406859D01*
X200363666Y-147463934D01*
X200110692Y-147844934D01*
X202394641Y-147844934D01*
X202141666Y-147463934D01*
X201832772Y-147180675D01*
X201348940Y-147084432D01*
X201252666Y-147082934D01*
X200731752Y-147155307D01*
G37*
X200731752Y-147155307D02*
X200404065Y-147406859D01*
X200363666Y-147463934D01*
X200110692Y-147844934D01*
X202394641Y-147844934D01*
X202141666Y-147463934D01*
X201832772Y-147180675D01*
X201348940Y-147084432D01*
X201252666Y-147082934D01*
X200731752Y-147155307D01*
G36*
X198035333Y-150714770D02*
G01*
X204131333Y-150702410D01*
X205389695Y-149739338D01*
X206648056Y-148776267D01*
X205848723Y-148724384D01*
X205341029Y-148723479D01*
X204931473Y-148831702D01*
X204476738Y-149097750D01*
X204229008Y-149274718D01*
X203408626Y-149876934D01*
X198753113Y-149876934D01*
X197928165Y-149284267D01*
X197371651Y-148925414D01*
X196896847Y-148746851D01*
X196342906Y-148692516D01*
X196227756Y-148691600D01*
X195352297Y-148691600D01*
X198035333Y-150714770D01*
G37*
X198035333Y-150714770D02*
X204131333Y-150702410D01*
X205389695Y-149739338D01*
X206648056Y-148776267D01*
X205848723Y-148724384D01*
X205341029Y-148723479D01*
X204931473Y-148831702D01*
X204476738Y-149097750D01*
X204229008Y-149274718D01*
X203408626Y-149876934D01*
X198753113Y-149876934D01*
X197928165Y-149284267D01*
X197371651Y-148925414D01*
X196896847Y-148746851D01*
X196342906Y-148692516D01*
X196227756Y-148691600D01*
X195352297Y-148691600D01*
X198035333Y-150714770D01*
D11*
X142952500Y-152325600D02*
X143402500Y-152775600D01*
X142952500Y-155725600D02*
X143402500Y-155275600D01*
X138352500Y-155725600D02*
X137902500Y-155275600D01*
X138352500Y-152325600D02*
X137902500Y-152775600D01*
X139652500Y-156775600D02*
X141652500Y-156775600D01*
X143402500Y-152775600D02*
X143402500Y-155275600D01*
X139652500Y-151275600D02*
X141652500Y-151275600D01*
X137902500Y-152775600D02*
X137902500Y-155275600D01*
D12*
X124726700Y-111315500D02*
X142506700Y-111315500D01*
X142506700Y-111315500D02*
X142506700Y-141795500D01*
X142506700Y-141795500D02*
X124726700Y-141795500D01*
X124726700Y-141795500D02*
X124726700Y-111315500D01*
X139966700Y-111315500D02*
X139966700Y-113855500D01*
X139966700Y-113855500D02*
X142506700Y-113855500D01*
D13*
X137307261Y-152692266D02*
X137354880Y-152835123D01*
X137354880Y-153073219D01*
X137307261Y-153168457D01*
X137259642Y-153216076D01*
X137164404Y-153263695D01*
X137069166Y-153263695D01*
X136973928Y-153216076D01*
X136926309Y-153168457D01*
X136878690Y-153073219D01*
X136831071Y-152882742D01*
X136783452Y-152787504D01*
X136735833Y-152739885D01*
X136640595Y-152692266D01*
X136545357Y-152692266D01*
X136450119Y-152739885D01*
X136402500Y-152787504D01*
X136354880Y-152882742D01*
X136354880Y-153120838D01*
X136402500Y-153263695D01*
X136354880Y-153597028D02*
X137354880Y-153835123D01*
X136640595Y-154025600D01*
X137354880Y-154216076D01*
X136354880Y-154454171D01*
X137354880Y-155358933D02*
X137354880Y-154787504D01*
X137354880Y-155073219D02*
X136354880Y-155073219D01*
X136497738Y-154977980D01*
X136592976Y-154882742D01*
X136640595Y-154787504D01*
D14*
X134546223Y-125394357D02*
X135574319Y-125394357D01*
X135695271Y-125466928D01*
X135755747Y-125539500D01*
X135816223Y-125684642D01*
X135816223Y-125974928D01*
X135755747Y-126120071D01*
X135695271Y-126192642D01*
X135574319Y-126265214D01*
X134546223Y-126265214D01*
X135816223Y-127789214D02*
X135816223Y-126918357D01*
X135816223Y-127353785D02*
X134546223Y-127353785D01*
X134727652Y-127208642D01*
X134848604Y-127063500D01*
X134909080Y-126918357D01*
M02*
